<svg width="156" height="35" viewBox="0 0 156 35" fill="none" xmlns="http://www.w3.org/2000/svg">
<path d="M13.6736 24.47L12.8636 30.14V0.493997H0.983632V35H32.8436V24.47H13.6736ZM45.1767 10.97H68.2347L61.7547 11.78V23.66L68.2347 24.47H45.0687L51.4947 23.66V11.78L45.1767 10.97ZM73.8507 35V0.493997H39.3447V35H73.8507ZM114.901 10.97V0.493997H80.3953V35C91.7893 35 103.561 35 114.901 35C114.901 27.656 114.901 20.366 114.901 13.076H97.4053V22.796H103.615V24.47H92.5453L91.7353 29.6C91.7353 13.778 91.7353 21.122 91.7353 5.3L92.5453 10.97C99.7813 10.97 107.611 10.97 114.901 10.97ZM127.278 10.97H150.336L143.856 11.78V23.66L150.336 24.47H127.17L133.596 23.66V11.78L127.278 10.97ZM155.952 35V0.493997H121.446V35H155.952Z" fill="white"/>
</svg>
